<?xml version="1.0" encoding="iso-8859-1"?>
<!-- Uploaded to: SVG Repo, www.svgrepo.com, Generator: SVG Repo Mixer Tools -->
<!DOCTYPE svg PUBLIC "-//W3C//DTD SVG 1.1//EN" "http://www.w3.org/Graphics/SVG/1.1/DTD/svg11.dtd">
<svg height="800px" width="800px" version="1.1" id="Capa_1" xmlns="http://www.w3.org/2000/svg" xmlns:xlink="http://www.w3.org/1999/xlink" 
	 viewBox="0 0 297.5 297.5" xml:space="preserve">
<g id="XMLID_36_">
	<g>
		<path style="fill:#9C8F31;" d="M242.927,148.87c3.49,6.97,3.76,20.11,0.561,27.57l-42.521,99.229H72.777l-42.53-99.229
			c-3.2-7.46-2.93-20.601,0.56-27.57l5.92-11.84h200.29L242.927,148.87z"/>
		<path style="fill:#F4AF30;" d="M266.697,56.44c1.81,1.81,2.81,4.25,2.81,6.859c0,2.61-1,5.05-2.81,6.87l-1.4,1.4
			c-3.47,3.46-6.78,5.029-8.479,5.46c-2.9-2.21-6.521-3.41-10.381-3.41c-8.189,0-17.279,5.399-24.31,14.43l-21.31,27.4h-56.98
			l59.45-46.24c8.649-6.729,13.899-15.15,14.399-23.1c0.27-4.33-0.92-8.37-3.369-11.591c0.43-1.63,1.939-4.96,5.46-8.47l1.4-1.399
			c1.811-1.82,4.25-2.82,6.86-2.82c2.61,0,5.05,1,6.87,2.82L266.697,56.44z"/>
		<path d="M281.947,41.18c5.899,5.891,9.14,13.75,9.14,22.12s-3.24,16.23-9.13,22.13l-1.4,1.4c-7.47,7.46-16.649,11.91-24.58,11.91
			c-3.97,0-7.55-1.06-10.489-3.101c-1.48,0.771-3.9,2.54-6.32,5.66l-11.01,14.15h15.52c4.09,0,7.83,2.31,9.65,5.97l8.91,17.8
			c6.35,12.7,6.819,32.36,1.09,45.721l-45.33,105.77c-1.7,3.97-5.6,6.54-9.92,6.54H65.657c-4.311,0-8.21-2.57-9.91-6.54
			l-45.33-105.77c-5.731-13.36-5.26-33.02,1.09-45.721l8.9-17.8c1.83-3.66,5.56-5.97,9.649-5.97h78.63l81.351-63.271
			c3.12-2.43,4.899-4.85,5.67-6.33c-3.33-4.81-4.03-11.27-1.87-18.18c1.82-5.82,5.61-11.81,10.68-16.88l1.4-1.4
			c5.89-5.89,13.75-9.14,22.12-9.14c8.38,0,16.23,3.25,22.13,9.14L281.947,41.18z M269.507,63.3c0-2.609-1-5.05-2.81-6.859
			l-31.79-31.79c-1.82-1.82-4.26-2.82-6.87-2.82c-2.61,0-5.05,1-6.86,2.82l-1.4,1.399c-3.52,3.51-5.03,6.84-5.46,8.47
			c2.449,3.221,3.64,7.261,3.369,11.591c-0.5,7.949-5.75,16.37-14.399,23.1l-59.45,46.24h56.98l21.31-27.4
			c7.03-9.03,16.12-14.43,24.31-14.43c3.86,0,7.48,1.2,10.381,3.41c1.699-0.431,5.01-2,8.479-5.46l1.4-1.4
			C268.507,68.35,269.507,65.91,269.507,63.3z M243.487,176.44c3.199-7.46,2.93-20.601-0.561-27.57l-5.91-11.84H36.727l-5.92,11.84
			c-3.489,6.97-3.76,20.11-0.56,27.57l42.53,99.229h128.189L243.487,176.44z"/>
	</g>
	<g>
	</g>
</g>
</svg>